<svg width="25" height="25" viewBox="0 0 25 25" fill="none" xmlns="http://www.w3.org/2000/svg">
<path d="M12.1672 0.299355C5.49009 0.299355 0.0578613 5.73158 0.0578613 12.4087C0.0578613 19.0859 5.49009 24.5181 12.1672 24.5181C18.8444 24.5181 24.2766 19.0859 24.2766 12.4087C24.2766 5.73158 18.8444 0.299355 12.1672 0.299355ZM20.1736 5.88363C21.6142 7.64369 22.4865 9.88544 22.5093 12.3267C22.1683 12.2546 18.7486 11.561 15.307 11.9938C15.0262 11.3082 14.7611 10.7051 14.398 9.9619C18.2223 8.40053 19.9555 6.1786 20.1736 5.88363V5.88363ZM19.0237 4.68754C18.8377 4.95253 17.2807 7.04525 13.6028 8.42382C11.9079 5.30976 10.0293 2.75155 9.74341 2.36874C13.0235 1.57807 16.48 2.43075 19.0237 4.68754V4.68754ZM7.76982 3.064C8.04253 3.43798 9.89082 5.99935 11.6046 9.04589C6.76641 10.3307 2.50503 10.3122 2.04243 10.3061C2.71313 7.09647 4.87612 4.4289 7.76982 3.064ZM1.82397 12.4245C1.82397 12.3187 1.82607 12.2135 1.82925 12.1084C2.28179 12.1177 7.29409 12.1823 12.4594 10.6365C12.7555 11.216 13.0384 11.8042 13.298 12.3918C9.55781 13.4453 6.15962 16.4703 4.48301 19.3403C2.83101 17.5066 1.82397 15.0811 1.82397 12.4245ZM5.81846 20.5843C6.89888 18.3757 9.83105 15.5246 14.001 14.1021C15.4532 17.8757 16.0537 21.0383 16.2075 21.9457C12.8817 23.3624 8.88257 22.9737 5.81846 20.5843V20.5843ZM17.9464 20.9988C17.8404 20.3696 17.2898 17.3417 15.937 13.6242C19.1782 13.1053 22.0259 13.9546 22.3797 14.0663C21.9187 16.9443 20.2668 19.4298 17.9464 20.9988Z" fill="#F8F9FA"/>
</svg>
