<svg width="26" height="26" viewBox="0 0 26 26" fill="none" xmlns="http://www.w3.org/2000/svg">
<path d="M12.6042 7.63068C9.49878 7.63068 6.9939 10.1356 6.9939 13.241C6.9939 16.3465 9.49878 18.8514 12.6042 18.8514C15.7097 18.8514 18.2146 16.3465 18.2146 13.241C18.2146 10.1356 15.7097 7.63068 12.6042 7.63068ZM12.6042 16.8885C10.5974 16.8885 8.95679 15.2527 8.95679 13.241C8.95679 11.2293 10.5925 9.59357 12.6042 9.59357C14.616 9.59357 16.2517 11.2293 16.2517 13.241C16.2517 15.2527 14.6111 16.8885 12.6042 16.8885V16.8885ZM19.7527 7.40118C19.7527 8.12872 19.1667 8.70978 18.4441 8.70978C17.7166 8.70978 17.1355 8.12384 17.1355 7.40118C17.1355 6.67853 17.7214 6.09259 18.4441 6.09259C19.1667 6.09259 19.7527 6.67853 19.7527 7.40118ZM23.4685 8.72931C23.3855 6.97638 22.9851 5.42364 21.7009 4.14435C20.4216 2.86505 18.8689 2.46466 17.116 2.37677C15.3093 2.27423 9.89429 2.27423 8.08765 2.37677C6.3396 2.45978 4.78687 2.86017 3.50269 4.13947C2.21851 5.41876 1.823 6.9715 1.73511 8.72443C1.63257 10.5311 1.63257 15.9461 1.73511 17.7527C1.81812 19.5057 2.21851 21.0584 3.50269 22.3377C4.78687 23.617 6.33472 24.0174 8.08765 24.1053C9.89429 24.2078 15.3093 24.2078 17.116 24.1053C18.8689 24.0223 20.4216 23.6219 21.7009 22.3377C22.9802 21.0584 23.3806 19.5057 23.4685 17.7527C23.571 15.9461 23.571 10.5359 23.4685 8.72931V8.72931ZM21.1345 19.6912C20.7537 20.6483 20.0164 21.3856 19.0544 21.7713C17.614 22.3426 14.196 22.2108 12.6042 22.2108C11.0125 22.2108 7.5896 22.3377 6.15405 21.7713C5.19702 21.3904 4.45972 20.6531 4.07397 19.6912C3.50269 18.2508 3.63452 14.8328 3.63452 13.241C3.63452 11.6492 3.50757 8.22638 4.07397 6.79083C4.45483 5.8338 5.19214 5.0965 6.15405 4.71075C7.59448 4.13947 11.0125 4.2713 12.6042 4.2713C14.196 4.2713 17.6189 4.14435 19.0544 4.71075C20.0115 5.09161 20.7488 5.82892 21.1345 6.79083C21.7058 8.23126 21.574 11.6492 21.574 13.241C21.574 14.8328 21.7058 18.2557 21.1345 19.6912Z" fill="#F8F9FA"/>
</svg>
