<svg width="26" height="26" viewBox="0 0 26 26" fill="none" xmlns="http://www.w3.org/2000/svg">
<path d="M22.2295 2.11084H3.47461C2.61523 2.11084 1.91699 2.81885 1.91699 3.68799V22.4087C1.91699 23.2778 2.61523 23.9858 3.47461 23.9858H22.2295C23.0889 23.9858 23.792 23.2778 23.792 22.4087V3.68799C23.792 2.81885 23.0889 2.11084 22.2295 2.11084ZM8.52832 20.8608H5.28613V10.4214H8.5332V20.8608H8.52832ZM6.90723 8.99561C5.86719 8.99561 5.02734 8.15088 5.02734 7.11572C5.02734 6.08057 5.86719 5.23584 6.90723 5.23584C7.94238 5.23584 8.78711 6.08057 8.78711 7.11572C8.78711 8.15576 7.94727 8.99561 6.90723 8.99561V8.99561ZM20.6816 20.8608H17.4395V15.7827C17.4395 14.5718 17.415 13.0142 15.7549 13.0142C14.0654 13.0142 13.8066 14.3325 13.8066 15.6948V20.8608H10.5645V10.4214H13.6748V11.8472H13.7187C14.1533 11.0269 15.2129 10.1626 16.79 10.1626C20.0713 10.1626 20.6816 12.3257 20.6816 15.1382V20.8608V20.8608Z" fill="#F8F9FA"/>
</svg>
