<svg width="512" height="512" viewBox="0 0 512 512" fill="none" xmlns="http://www.w3.org/2000/svg">
<circle cx="256" cy="256" r="255" fill="#EDEDED" stroke="#545454" stroke-width="2"/>
<path d="M276.704 343.544C277.088 343.544 277.28 344.12 277.28 345.272C277.28 346.424 277.088 347 276.704 347H239.552C234.752 347 225.728 339.032 212.48 323.096C199.232 307.16 183.488 285.272 165.248 257.432C160.064 258.584 154.688 259.16 149.12 259.16C147.968 259.16 143.648 258.872 136.16 258.296V323.672C136.16 329.624 136.736 333.944 137.888 336.632C139.04 339.32 141.248 341.144 144.512 342.104C147.968 343.064 153.344 343.544 160.64 343.544C161.216 343.544 161.504 344.12 161.504 345.272C161.504 346.424 161.216 347 160.64 347C154.688 347 149.984 346.904 146.528 346.712L126.656 346.424L107.072 346.712C103.616 346.904 98.72 347 92.384 347C92 347 91.808 346.424 91.808 345.272C91.808 344.12 92 343.544 92.384 343.544C99.68 343.544 105.056 343.064 108.512 342.104C111.968 341.144 114.272 339.32 115.424 336.632C116.768 333.752 117.44 329.432 117.44 323.672V190.328C117.44 184.568 116.864 180.344 115.712 177.656C114.56 174.968 112.256 173.144 108.8 172.184C105.536 171.032 100.256 170.456 92.96 170.456C92.384 170.456 92.096 169.88 92.096 168.728C92.096 167.576 92.384 167 92.96 167L107.072 167.288C115.136 167.672 121.664 167.864 126.656 167.864C130.88 167.864 134.816 167.768 138.464 167.576C142.112 167.384 145.184 167.192 147.68 167C154.784 166.424 161.216 166.136 166.976 166.136C182.144 166.136 193.856 169.592 202.112 176.504C210.368 183.416 214.496 192.632 214.496 204.152C214.496 214.52 211.424 223.928 205.28 232.376C199.328 240.632 191.36 247.16 181.376 251.96C197.504 275.192 211.04 293.432 221.984 306.68C233.12 319.736 242.912 329.144 251.36 334.904C260 340.664 268.448 343.544 276.704 343.544ZM136.16 251.384C140.96 252.152 146.624 252.536 153.152 252.536C168.128 252.536 178.784 249.272 185.12 242.744C191.648 236.216 194.912 226.136 194.912 212.504C194.912 197.528 191.552 186.776 184.832 180.248C178.304 173.72 168.704 170.456 156.032 170.456C148.544 170.456 143.36 171.8 140.48 174.488C137.6 177.176 136.16 182.648 136.16 190.904V251.384Z" fill="#545454"/>
<path d="M331.264 348.152C325.696 348.152 319.264 347.864 311.968 347.288C309.28 347.096 305.824 346.904 301.6 346.712C297.568 346.52 293.056 346.424 288.064 346.424L268.48 346.712C265.024 346.904 260.224 347 254.08 347C253.696 347 253.504 346.424 253.504 345.272C253.504 344.12 253.696 343.544 254.08 343.544C261.376 343.544 266.656 343.064 269.92 342.104C273.376 341.144 275.68 339.32 276.832 336.632C278.176 333.752 278.848 329.432 278.848 323.672V190.328C278.848 184.568 278.272 180.344 277.12 177.656C275.968 174.968 273.664 173.144 270.208 172.184C266.944 171.032 261.664 170.456 254.368 170.456C253.984 170.456 253.792 169.88 253.792 168.728C253.792 167.576 253.984 167 254.368 167L268.768 167.288C276.832 167.672 283.264 167.864 288.064 167.864C295.36 167.864 302.56 167.576 309.664 167C318.112 166.616 323.968 166.424 327.232 166.424C347.2 166.424 364.864 170.264 380.224 177.944C395.776 185.624 407.776 196.088 416.224 209.336C424.672 222.584 428.896 237.464 428.896 253.976C428.896 272.6 424.48 289.112 415.648 303.512C407.008 317.72 395.2 328.76 380.224 336.632C365.248 344.312 348.928 348.152 331.264 348.152ZM328.384 343.832C343.744 343.832 357.376 340.664 369.28 334.328C381.184 327.8 390.4 318.296 396.928 305.816C403.648 293.144 407.008 277.976 407.008 260.312C407.008 243.608 403.84 228.44 397.504 214.808C391.168 201.176 382.144 190.424 370.432 182.552C358.72 174.68 345.184 170.744 329.824 170.744C321.568 170.744 315.136 171.224 310.528 172.184C306.112 173.144 302.848 175.064 300.736 177.944C298.624 180.824 297.568 185.144 297.568 190.904V320.504C297.568 326.264 298.336 330.776 299.872 334.04C301.6 337.304 304.672 339.8 309.088 341.528C313.696 343.064 320.128 343.832 328.384 343.832Z" fill="#545454"/>
</svg>
